# xmcd
#
# Track frame offsets:
#	150
#	12593
#	22283
#	32729
#	43715
#	60045
#	76051
#	92732
#	104393
#	119887
#	135651
#	148526
#	160214
#	175924
#	188313
#	202970
#	217114
#	227560
#	239841
#	253823
#	266023
#	282245
#
# Disc length: 3933 seconds
#
# Revision: 1
# Processed by: cddbd v1.5PL3 Copyright (c) Steve Scherf et al.
# Submitted via: audiograbber 1.82.01
#
DISCID=3e0f5b16
DTITLE=Varios Artistas - Sertanejo Bom de Danca 2000
DYEAR=2000
DGENRE=Sertanejo
TTITLE0=Carminha - Henrique E Hernane
TTITLE1=Quem Tem ... Tem Medo - Teodoro E Sampaio
TTITLE2=O Negocio Da Minha Mulher - Sandro E Gustavo
TTITLE3=Pula Ne Mim Menina - Teodoro E Sampaio
TTITLE4=Sera Que Me Esqueceu - Bruno E Marrone
TTITLE5=O Que Eu Tenho Bebido - Cleyton E Camargo
TTITLE6=Mexe Que E Bom - Zeze Di Camargo E Luciano
TTITLE7=Pega Pega - Teodoro E Sampaio
TTITLE8=Meu Dengo - Roberta Miranda E Rio Negro E Solimoes
TTITLE9=Saudade Esta Judiando - Emilio E Eduardo
TTITLE10=A Garagem Da Vizinha - Sandro E Gustavo
TTITLE11=Call Girll - Ze Paulo E Ronan
TTITLE12=Mulher Madura - Frank Aguiar
TTITLE13=Festa De Rua - Teodoro E Sampaio
TTITLE14=Eu To No Meio - Daniel
TTITLE15=Rala O Bucho - Joao Pedro E Di Assis
TTITLE16=Meu Negocio E Mulher - Teodoro E Sampaio
TTITLE17=Coisa De Louco - Romes E Carlinhos
TTITLE18=O Meu Taxi E Um Cacete - Felipe E Falcao
TTITLE19=Vida Baguncada - Teodoro E Sampaio
TTITLE20=Ela Nao Veio - Rio Negro E Solimoes
TTITLE21=Recortado Paulista - Fred E Pedrito
EXTD=
EXTT0=
EXTT1=
EXTT2=
EXTT3=
EXTT4=
EXTT5=
EXTT6=
EXTT7=
EXTT8=
EXTT9=
EXTT10=
EXTT11=
EXTT12=
EXTT13=
EXTT14=
EXTT15=
EXTT16=
EXTT17=
EXTT18=
EXTT19=
EXTT20=
EXTT21=
PLAYORDER=
